<svg id="52d9fe35-3f49-4ae8-bc8e-4dec6e87a3d8" data-name="Layer 1" xmlns="http://www.w3.org/2000/svg" width="14.728" height="18" viewBox="0 0 14.728 18"><title>icon-security</title><path d="M7.364,0,0,3.273V8.182A10.182,10.182,0,0,0,7.364,18a10.182,10.182,0,0,0,7.364-9.818V3.273Z" fill="#48a463"/><path d="M12.192,5.578a.36.36,0,0,1,.047.141.36.36,0,0,1-.047.141l-5.836,7.5q-.141.141-.211.141a.338.338,0,0,1-.234-.117L2.606,10.2l-.07-.07a.36.36,0,0,1-.047-.141.411.411,0,0,1,.047-.117l.047-.047q.656-.7,1.031-1.078Q3.755,8.6,3.8,8.6a.384.384,0,0,1,.234.141L5.911,10.57,10.6,4.547a.191.191,0,0,1,.141-.047.378.378,0,0,1,.164.047Z" fill="#fff"/></svg>