<svg id="fafc0cf2-e253-4346-9b8c-cf2ee2afa298" data-name="Layer 1" xmlns="http://www.w3.org/2000/svg" width="34" height="34" viewBox="0 0 34 34"><title>icon-user-circle</title><path d="M17,34A17,17,0,1,0,0,17,17,17,0,0,0,17,34" fill="#aeb0b5"/><path d="M19.286,23.851a10.206,10.206,0,0,0,4.571-8.493c0-5.681,0-10.286-6.857-10.286s-6.857,4.605-6.857,10.286a10.206,10.206,0,0,0,4.572,8.493v1.885A21.135,21.135,0,0,0,4.83,28.857a16.97,16.97,0,0,0,24.341,0,21.123,21.123,0,0,0-9.885-3.12Z" fill="#fff"/></svg>