<svg id="8b07b9e6-0d5d-4e74-8ad9-80098d0601b2" data-name="Layer 2" xmlns="http://www.w3.org/2000/svg" width="200" height="40.937" viewBox="0 0 200 40.937"><title>logo-cognosante-rev</title><g id="f927c74c-05f2-4bb9-8217-3fcbb31cda17" data-name="&lt;Group&gt;"><path id="ade185f1-295a-4146-92e3-6f33ff7795c9" data-name="&lt;Path&gt;" d="M15.787,10.453H10.281c-3.318,0-6.6,2.158-6.6,6.238s3.283,6.243,6.6,6.243h5.506v3.357H9.64a9.6,9.6,0,1,1,0-19.2h6.148Z" fill="#fff"/><path id="574c9d64-ae10-4902-8b47-84f687cf1afc" data-name="&lt;Compound Path&gt;" d="M27.742,23.336c3.641,0,6.282-2.717,6.282-6.645s-2.641-6.638-6.282-6.638-6.279,2.724-6.279,6.638,2.639,6.645,6.279,6.645m0-16.644a9.844,9.844,0,0,1,9.963,10,9.96,9.96,0,1,1-19.919,0,9.841,9.841,0,0,1,9.956-10" fill="#fff"/><path id="489c4c2b-9879-4c7f-a686-0df20e856227" data-name="&lt;Path&gt;" d="M54.587,25.418a10.781,10.781,0,0,1-4.525,1.276,9.632,9.632,0,0,1-9.917-9.762c0-5.755,3.921-10.239,9.917-10.239A9.364,9.364,0,0,1,59.5,16.215V24.78c0,7.2-4.4,10.638-10.04,10.638a20.194,20.194,0,0,1-6.32-1.12l.841-3.206a20.23,20.23,0,0,0,5.317.961c3.162,0,6.681-1.4,6.681-6.08V17.011c0-4.313-2.8-6.958-6.082-6.958-4.2,0-6.238,3.32-6.238,7.082s2.8,6.2,6.441,6.2a9.256,9.256,0,0,0,4.482-1.553Z" fill="#fff"/><path id="b728131e-3589-4977-88e5-36e06d9cd604" data-name="&lt;Path&gt;" d="M62.9,26.293v-11.2a7.974,7.974,0,0,1,8.2-8.4c4.678,0,8.195,3.361,8.195,8.4v11.2H75.786v-11.2a4.693,4.693,0,1,0-9.361,0v11.2Z" fill="#fff"/><path id="1d6f7a6e-1ab0-4160-baf0-33d6cce0cb08" data-name="&lt;Compound Path&gt;" d="M92.227,23.336c3.638,0,6.279-2.717,6.279-6.645s-2.641-6.638-6.279-6.638-6.283,2.724-6.283,6.638,2.644,6.645,6.283,6.645m0-16.644a9.843,9.843,0,0,1,9.959,10,9.961,9.961,0,1,1-19.923,0,9.843,9.843,0,0,1,9.963-10" fill="#fff"/><path id="e3b9dfe8-a9d7-4646-87f1-def3da47c76e" data-name="&lt;Path&gt;" d="M104.465,22.935h9.842c1.633,0,2.278-.64,2.278-1.839,0-3.522-12.121-2.161-12.121-8.8,0-3.4,2.358-5.2,6.561-5.2h8.28v3.363h-8.879c-1.722,0-2.2.487-2.286,1.679,0,3.322,12.128,1.925,12.128,8.8,0,3.638-2.566,5.357-5.963,5.357h-9.842Z" fill="#f38b00"/><path id="8cb21627-5c43-4bf3-b9e5-db590fa95a77" data-name="&lt;Path&gt;" d="M138.225,26.293V15.5c0-3.606-3.043-5.442-6.24-5.442-3.878,0-6.322,3.08-6.322,6.721a6.331,6.331,0,0,0,6.279,6.56,6.215,6.215,0,0,0,4.841-2.643v4.164a7.818,7.818,0,0,1-5.2,1.836c-5.518,0-9.437-4.557-9.437-10.2,0-5.483,3.761-9.8,9.917-9.8,5.925,0,9.684,3.6,9.684,9.119v10.48Z" fill="#f38b00"/><path id="2b364858-4e99-4506-8b75-dfcdebd144c7" data-name="&lt;Path&gt;" d="M145.145,26.293v-11.2a8.2,8.2,0,1,1,16.4,0v11.2h-3.521v-11.2a4.693,4.693,0,1,0-9.361,0v11.2Z" fill="#f38b00"/><path id="ecc3afe6-ae5f-401f-b5a4-8a75ebc79cf8" data-name="&lt;Path&gt;" d="M176.1,10.453h-6.876V20.532c0,1.8.839,2.4,2.637,2.4H176.1v3.357h-4.715c-3.6,0-5.68-2.4-5.68-6.2V2.3h3.519V7.091H176.1Z" fill="#f38b00"/><path id="966f5057-82ff-4841-9b13-cc2da3350281" data-name="&lt;Path&gt;" d="M184.145,19.975l-1.44-2.8,9.482-5.289a5.325,5.325,0,0,0-4.361-1.836c-3.638,0-6.281,2.724-6.281,6.638s2.643,6.643,6.281,6.643c4.162,0,5.721-2.477,6.441-6l3.562.439a9.661,9.661,0,0,1-10,8.918,9.841,9.841,0,0,1-9.96-10,9.842,9.842,0,0,1,9.96-10c4.48,0,7.48,2.362,9.282,6.085Z" fill="#f38b00"/><path id="71afebc4-b640-49fc-bee8-8abe5c67ac71" data-name="&lt;Compound Path&gt;" d="M105.691,34.862l0,.018h.029Zm.025.018a2.609,2.609,0,0,1,1.985-.933,2.047,2.047,0,0,1,2,1.281,3.14,3.14,0,0,1,2.478-1.281c1.024,0,2.552.608,2.136,2.876l-.732,3.951h-.855l.716-3.857a2.316,2.316,0,0,0-.048-1.384,1.345,1.345,0,0,0-1.354-.821,2.073,2.073,0,0,0-1.665.821,3.007,3.007,0,0,0-.558,1.384l-.716,3.857h-.85l.711-3.857a2.358,2.358,0,0,0-.043-1.384,1.361,1.361,0,0,0-1.363-.821,2.071,2.071,0,0,0-1.662.821,3.026,3.026,0,0,0-.56,1.384l-.713,3.857h-.851L105,34.119h.853Z" fill="#fff"/><path id="d2c54e88-6f0d-4761-a268-998891fdf78c" data-name="&lt;Compound Path&gt;" d="M116.844,31.767h.851l-.284,1.532h-.85Zm-.434,2.351h.851l-1.232,6.656h-.853Z" fill="#fff"/><path id="b65b2ff5-efae-4d92-9ce8-71fda573103f" data-name="&lt;Path&gt;" d="M118.844,34.119h.851l-.16.85h.025a2.956,2.956,0,0,1,2.236-1.022,2.314,2.314,0,0,1,1.953.818,2.746,2.746,0,0,1,.393,2.349l-.675,3.661h-.857l.686-3.661A2.209,2.209,0,0,0,123,35.288a1.8,1.8,0,0,0-1.347-.578,2.537,2.537,0,0,0-1.555.578,2.957,2.957,0,0,0-.962,1.825l-.677,3.661h-.846Z" fill="#fff"/><path id="10d6cc60-72f8-4acd-ac57-0139a88a691a" data-name="&lt;Compound Path&gt;" d="M128.413,40.171a3.372,3.372,0,0,0,3.167-2.723,2.184,2.184,0,0,0-2.161-2.737,3.344,3.344,0,0,0-3.236,2.753,2.149,2.149,0,0,0,2.23,2.707m3.354.6h-.851l.213-1.168h-.021a3.817,3.817,0,0,1-2.838,1.329,2.825,2.825,0,0,1-2.931-3.5,4.387,4.387,0,0,1,4.221-3.483,2.56,2.56,0,0,1,2.355,1.312h.02l.65-3.492h.85Z" fill="#fff"/><path id="16b88a88-c9fd-40c8-a309-d4c28c6993b7" data-name="&lt;Path&gt;" d="M134.089,38.806c-.212,1.267.638,1.365.942,1.365a1.4,1.4,0,0,0,1.463-1.2c.165-.912-.62-1.121-1.082-1.328-.64-.231-1.651-.6-1.423-1.85a2.282,2.282,0,0,1,2.241-1.85,1.442,1.442,0,0,1,1.479,1.815h-.851c.092-.814-.425-1.05-.805-1.05a1.244,1.244,0,0,0-1.194,1c-.13.711.528.954.99,1.113.732.256,1.774.679,1.518,2.054a2.4,2.4,0,0,1-2.472,2.06,1.623,1.623,0,0,1-1.653-2.131Z" fill="#fff"/><path id="56b9d559-c9ee-4052-86d3-6a9085694339" data-name="&lt;Compound Path&gt;" d="M144.778,40.171a3.352,3.352,0,0,0,3.144-2.769,2.163,2.163,0,0,0-2.133-2.691,3.388,3.388,0,0,0-3.139,2.765,2.162,2.162,0,0,0,2.127,2.694m1.143-6.224a2.853,2.853,0,0,1,2.849,3.494,4.441,4.441,0,0,1-4.144,3.494,2.825,2.825,0,0,1-2.828-3.448,4.42,4.42,0,0,1,4.123-3.54" fill="#fff"/><path id="4fe26b10-e577-40d1-8569-e3059371846f" data-name="&lt;Path&gt;" d="M150.674,34.119h.853l-.162.85h.025a2.96,2.96,0,0,1,2.232-1.022,2.314,2.314,0,0,1,1.957.818,2.771,2.771,0,0,1,.395,2.349l-.677,3.661h-.853l.677-3.661a2.157,2.157,0,0,0-.3-1.825,1.782,1.782,0,0,0-1.34-.578,2.533,2.533,0,0,0-1.555.578,2.956,2.956,0,0,0-.96,1.825l-.675,3.661h-.853Z" fill="#fff"/><path id="f40de1cf-93df-41e7-a794-6bca9f7f9b7f" data-name="&lt;Path&gt;" d="M161.864,31.768h.855l-.59,3.2h.023a2.947,2.947,0,0,1,2.234-1.022,2.306,2.306,0,0,1,1.955.818,2.777,2.777,0,0,1,.395,2.349l-.681,3.661H165.2l.679-3.661a2.17,2.17,0,0,0-.3-1.825,1.779,1.779,0,0,0-1.34-.578,2.555,2.555,0,0,0-1.562.578,2.977,2.977,0,0,0-.951,1.825l-.684,3.661H160.2Z" fill="#fff"/><path id="3cf56430-388b-46d8-a1f5-ea62c84464d2" data-name="&lt;Compound Path&gt;" d="M174.1,36.994a2.121,2.121,0,0,0-2.181-2.284,3.315,3.315,0,0,0-3.012,2.284Zm-5.34.764a2.124,2.124,0,0,0,2.136,2.413,3.194,3.194,0,0,0,2.68-1.575h.9a4.378,4.378,0,0,1-3.706,2.339,2.819,2.819,0,0,1-2.828-3.487,4.439,4.439,0,0,1,4.111-3.5,2.774,2.774,0,0,1,2.655,1.7,3.265,3.265,0,0,1,.119,2.106Z" fill="#fff"/><path id="8faac35e-c827-420e-ae31-3902196c0aa3" data-name="&lt;Compound Path&gt;" d="M178.987,40.171a3.368,3.368,0,0,0,3.165-2.723A2.18,2.18,0,0,0,180,34.712a3.341,3.341,0,0,0-3.24,2.753,2.148,2.148,0,0,0,2.23,2.707m3.354.6h-.855l.217-1.168h-.021a3.751,3.751,0,0,1-2.836,1.329,2.824,2.824,0,0,1-2.932-3.5,4.389,4.389,0,0,1,4.223-3.483,2.46,2.46,0,0,1,2.348,1.34h.021l.217-1.169h.851Z" fill="#fff"/><polygon id="889992ba-c272-4031-807b-98a0bc5045d8" data-name="&lt;Path&gt;" points="185.549 31.768 186.404 31.768 184.736 40.775 183.888 40.775 185.549 31.768" fill="#fff"/><polygon id="399e451a-a0ff-4fc8-a1e3-4538a9edd99d" data-name="&lt;Path&gt;" points="188.192 34.88 186.791 34.88 186.933 34.119 188.328 34.119 188.766 31.768 189.619 31.768 189.187 34.119 190.781 34.119 190.635 34.88 189.041 34.88 187.952 40.773 187.099 40.773 188.192 34.88" fill="#fff"/><path id="7694b78d-262f-43df-adf6-b46a51e93e7f" data-name="&lt;Path&gt;" d="M192.076,31.768h.855l-.592,3.2h.023a2.948,2.948,0,0,1,2.234-1.022,2.3,2.3,0,0,1,1.951.818,2.752,2.752,0,0,1,.4,2.349l-.679,3.661h-.85l.675-3.661a2.177,2.177,0,0,0-.293-1.825,1.793,1.793,0,0,0-1.345-.578,2.521,2.521,0,0,0-1.551.578,2.956,2.956,0,0,0-.96,1.825l-.679,3.661h-.851Z" fill="#fff"/><path id="9c7539e3-787a-40dd-9e00-30f17e3b712c" data-name="&lt;Compound Path&gt;" d="M196.561,1.623v.951h.787a.99.99,0,0,0,.487-.082.427.427,0,0,0,.187-.4.445.445,0,0,0-.133-.359.824.824,0,0,0-.51-.114Zm-.508-.462h1.338a1.715,1.715,0,0,1,.674.1.76.76,0,0,1,.336.306.931.931,0,0,1,.13.5.874.874,0,0,1-.092.423.966.966,0,0,1-.309.29.638.638,0,0,1,.293.243,1.151,1.151,0,0,1,.073.482V3.86a.758.758,0,0,0,.114.428l.053.082h-.569a2.912,2.912,0,0,1-.078-.471l-.023-.395a.7.7,0,0,0-.069-.306.308.308,0,0,0-.158-.13,1.332,1.332,0,0,0-.4-.039h-.8V4.37h-.508Zm3.56,1.628A2.429,2.429,0,0,0,198.413.7a2.314,2.314,0,0,0-1.194-.323,2.353,2.353,0,0,0-1.2.323,2.3,2.3,0,0,0-.883.887,2.368,2.368,0,0,0-.323,1.207,2.344,2.344,0,0,0,.323,1.2,2.333,2.333,0,0,0,.883.88,2.372,2.372,0,0,0,1.2.323,2.328,2.328,0,0,0,1.194-.323,2.406,2.406,0,0,0,1.2-2.086M200,2.783A2.789,2.789,0,0,1,198.6,5.2a2.73,2.73,0,0,1-1.39.377,2.794,2.794,0,0,1-2.415-1.4,2.712,2.712,0,0,1-.377-1.384,2.769,2.769,0,0,1,.377-1.4A2.772,2.772,0,0,1,197.215,0,2.722,2.722,0,0,1,198.6.371a2.743,2.743,0,0,1,1.02,1.025A2.764,2.764,0,0,1,200,2.783" fill="#fff"/></g></svg>